<svg viewBox="0 0 85.04 85.04">
    <defs>
        <linearGradient id="a" x1="14.72" x2="69.07" y1="-4.08" y2="90.07"
            data-name="Unbenannter Verlauf 259" gradientUnits="userSpaceOnUse">
            <stop offset="0" stop-color="#ffed00" />
            <stop offset=".48" stop-color="#95a921" />
            <stop offset="1" stop-color="#0095d4" />
        </linearGradient>
    </defs>
    <path
        d="M41.75 38.82c0 2.24-.87 2.46-2.6 2.46-.91-.1-3.14.47-3.04-1.09.19-.93-.65-3.99 1.09-3.83 2.02.13 4.75-.75 4.55 2.46ZM0 36.36V9.73A9.19 9.19 0 0 1 9.2.54c93.84 2.15 73.13-18.46 75.3 75.31a9.2 9.2 0 0 1-9.2 9.2H9.2a9.2 9.2 0 0 1-9.2-9.2V36.37m15.56 9.01c.45-2.79-1.57-9.97 2.84-9.67 1.95 0 2.61.95 2.78 2.53.11.76.68 1.26 1.44 1.12.74-.41 5.07-.45 4.8-1.91-.14-2.78-1.33-7.93-9.02-7.93-8.54 0-9.05 6.38-9.05 8.76.88 6.79-3.69 16.93 9.05 17.79 7.69 0 8.88-5.16 9.02-7.9.3-1.54-4.09-1.52-4.86-1.95-.72-.18-1.3.3-1.41 1.05-.53 4.51-6.66 2.96-5.58-1.87Zm32.39-6.56c.79-10.07-9.81-8.73-16.96-8.66-2.36-1.13-.53 23.64-1.08 24.17-.2 1.93 4.17.8 5.12 1.09.72 0 1.08-.37 1.08-1.09.37-.99-.99-7.12 1.08-6.86 6.59.47 11.07-1.92 10.76-8.65Zm27.2-7.58c.44-2.12-7.64-.69-8.54-1.09-1.73-.59-3.16 10.72-3.72 11.48-.07.37-.36.37-.43 0-3.83-12.44.83-11.65-11.18-11.48-2.4-1.21-.52 23.66-1.09 24.17-.23 1.93 4.18.8 5.12 1.09 2.22.98.64-14.65 1.09-15.29.73-1.32 3.59 14.42 3.9 14.36-.09 1.39 4.86 1.37 4.76 0 .3.03 3.16-15.66 3.9-14.36.44.7-1.13 16.22 1.09 15.29.92-.33 5.36.87 5.12-1.09V31.23Z"
        style="fill:url(#a);stroke-width:0" />
</svg>